<?xml version="1.0" encoding="UTF-8"?>
<svg xmlns="http://www.w3.org/2000/svg" xmlns:xlink="http://www.w3.org/1999/xlink" viewBox="0 0 50 50" version="1.1" fill="#ffffff" width="50px" height="50px">
<g id="surface1" fill="#ffffff">
<path style=" " d="M 48.121094 14.039063 L 35.890625 1.808594 C 35.496094 1.414063 34.867188 1.414063 34.476563 1.808594 L 30.847656 5.433594 L 34.707031 9.292969 L 33.292969 10.707031 L 29.433594 6.847656 L 26.847656 9.433594 L 33.707031 16.292969 L 32.292969 17.707031 L 25.433594 10.847656 L 22.847656 13.433594 L 26.707031 17.292969 L 25.292969 18.707031 L 21.433594 14.847656 L 18.847656 17.433594 L 25.707031 24.292969 L 24.292969 25.707031 L 17.433594 18.847656 L 14.847656 21.433594 L 18.707031 25.292969 L 17.292969 26.707031 L 13.433594 22.847656 L 10.847656 25.433594 L 17.707031 32.292969 L 16.292969 33.707031 L 9.433594 26.847656 L 6.847656 29.433594 L 10.707031 33.292969 L 9.292969 34.707031 L 5.433594 30.847656 L 1.878906 34.402344 C 1.691406 34.59375 1.585938 34.84375 1.585938 35.109375 C 1.585938 35.378906 1.691406 35.632813 1.878906 35.816406 L 14.109375 48.050781 C 14.304688 48.246094 14.5625 48.34375 14.816406 48.34375 C 15.074219 48.34375 15.328125 48.246094 15.523438 48.050781 L 48.121094 15.453125 C 48.308594 15.265625 48.414063 15.011719 48.414063 14.746094 C 48.414063 14.480469 48.308594 14.226563 48.121094 14.039063 Z " fill="#ffffff"/>
</g>
</svg>
