<?xml version="1.0" encoding="UTF-8"?>
<svg xmlns="http://www.w3.org/2000/svg" xmlns:xlink="http://www.w3.org/1999/xlink" viewBox="0 0 50 50" version="1.1" fill="#ffffff" width="50px" height="50px">
<g id="surface1" fill="#ffffff">
<path style=" " d="M 31 27.617188 L 31 27 L 34 27 C 34.554688 27 35 26.554688 35 26 C 35 25.449219 34.554688 25 34 25 L 31 25 L 31 23 L 34 23 C 34.554688 23 35 22.550781 35 22 C 35 21.449219 34.554688 21 34 21 L 31 21 L 31 19 L 34 19 C 34.554688 19 35 18.550781 35 18 C 35 17.449219 34.554688 17 34 17 L 31 17 L 31 15 L 34 15 C 34.554688 15 35 14.550781 35 14 C 35 13.449219 34.554688 13 34 13 L 31 13 L 31 11 L 34 11 C 34.554688 11 35 10.550781 35 10 C 35 9.449219 34.554688 9 34 9 L 31 9 L 31 5 C 31 1.960938 28.644531 0 25 0 C 21.355469 0 19 1.960938 19 5 L 19 27.617188 C 15.285156 29.761719 13 33.683594 13 38 C 13 44.617188 18.382813 50 25 50 C 31.617188 50 37 44.617188 37 38 C 37 33.6875 34.71875 29.761719 31 27.617188 Z M 25 2 C 26.203125 2 29 2.292969 29 5 L 29 9 L 21 9 L 21 5 C 21 2.292969 23.796875 2 25 2 Z " fill="#ffffff"/>
</g>
</svg>
