<?xml version="1.0" encoding="UTF-8"?>
<svg xmlns="http://www.w3.org/2000/svg" xmlns:xlink="http://www.w3.org/1999/xlink" viewBox="0 0 50 50" version="1.1" fill="#ffffff" width="50px" height="50px">
<g id="surface1" fill="#ffffff">
<path style=" " d="M 5.03125 3 C 4.398438 3.050781 3.484375 3.25 3.03125 4.03125 C 2.425781 5.070313 3.140625 6.339844 3.375 6.75 L 3.53125 7 C 6.546875 12.136719 8.0625 17.15625 8.0625 21.90625 C 8.0625 40.679688 10.855469 48 18 48 L 30 48 C 35.089844 48 38 45.453125 38 41 L 38 6 C 38 5.675781 37.898438 5.335938 37.75 5 L 40 5 C 44.132813 5 45 8.261719 45 11 L 45 22.03125 C 45 22.582031 45.445313 23.03125 46 23.03125 C 46.554688 23.03125 47 22.582031 47 22.03125 L 47 11 C 47 5.914063 44.449219 3 40 3 L 5.53125 3 C 5.414063 3 5.242188 2.984375 5.03125 3 Z M 24 6 L 32.84375 6 C 33.398438 6 33.84375 6.449219 33.84375 7 C 33.84375 7.550781 33.394531 8 32.84375 8 L 24 8 C 23.449219 8 23 7.550781 23 7 C 23 6.449219 23.449219 6 24 6 Z M 29 11 L 32.84375 11 C 33.398438 11 33.84375 11.449219 33.84375 12 C 33.84375 12.550781 33.394531 13 32.84375 13 L 29 13 C 28.445313 13 28 12.550781 28 12 C 28 11.449219 28.445313 11 29 11 Z M 24 16 L 32.84375 16 C 33.398438 16 33.84375 16.449219 33.84375 17 C 33.84375 17.550781 33.394531 18 32.84375 18 L 24 18 C 23.449219 18 23 17.550781 23 17 C 23 16.449219 23.449219 16 24 16 Z M 29 21 L 32.84375 21 C 33.398438 21 33.84375 21.449219 33.84375 22 C 33.84375 22.550781 33.394531 23 32.84375 23 L 29 23 C 28.445313 23 28 22.550781 28 22 C 28 21.449219 28.445313 21 29 21 Z M 24 26 L 32.84375 26 C 33.398438 26 33.84375 26.445313 33.84375 27 C 33.84375 27.554688 33.394531 28 32.84375 28 L 24 28 C 23.449219 28 23 27.554688 23 27 C 23 26.445313 23.449219 26 24 26 Z M 29 31 L 32.84375 31 C 33.398438 31 33.84375 31.445313 33.84375 32 C 33.84375 32.554688 33.394531 33 32.84375 33 L 29 33 C 28.445313 33 28 32.554688 28 32 C 28 31.445313 28.445313 31 29 31 Z M 24 36 L 32.84375 36 C 33.398438 36 33.84375 36.445313 33.84375 37 C 33.84375 37.554688 33.394531 38 32.84375 38 L 24 38 C 23.449219 38 23 37.554688 23 37 C 23 36.445313 23.449219 36 24 36 Z M 29 41 L 32.84375 41 C 33.398438 41 33.84375 41.445313 33.84375 42 C 33.84375 42.554688 33.394531 43 32.84375 43 L 29 43 C 28.445313 43 28 42.554688 28 42 C 28 41.445313 28.445313 41 29 41 Z " fill="#ffffff"/>
</g>
</svg>
